<mxfile host="app.diagrams.net" modified="2021-12-14T17:09:40.963Z" agent="5.0 (Windows NT 10.0; Win64; x64) AppleWebKit/537.36 (KHTML, like Gecko) Chrome/95.0.4638.69 Safari/537.36 OPR/81.0.4196.61" etag="ZcAjAQ9VP6PFdtb7kZSw" version="15.9.6" type="github">
  <diagram id="k7lWIKqvjzYtwFUY9pzX" name="Page-1">
    <mxGraphModel dx="592" dy="762" grid="1" gridSize="10" guides="1" tooltips="1" connect="1" arrows="1" fold="1" page="1" pageScale="1" pageWidth="850" pageHeight="1100" math="0" shadow="0">
      <root>
        <mxCell id="0" />
        <mxCell id="1" parent="0" />
        <mxCell id="NOuWM2T8Ii-4D87twefF-17" style="edgeStyle=orthogonalEdgeStyle;rounded=0;orthogonalLoop=1;jettySize=auto;html=1;dashed=1;" edge="1" parent="1" source="NOuWM2T8Ii-4D87twefF-1" target="NOuWM2T8Ii-4D87twefF-5">
          <mxGeometry relative="1" as="geometry" />
        </mxCell>
        <mxCell id="NOuWM2T8Ii-4D87twefF-1" value="Container" style="swimlane;fontStyle=1;align=center;verticalAlign=top;childLayout=stackLayout;horizontal=1;startSize=26;horizontalStack=0;resizeParent=1;resizeParentMax=0;resizeLast=0;collapsible=1;marginBottom=0;" vertex="1" parent="1">
          <mxGeometry x="30" y="80" width="160" height="34" as="geometry" />
        </mxCell>
        <mxCell id="NOuWM2T8Ii-4D87twefF-3" value="" style="line;strokeWidth=1;fillColor=none;align=left;verticalAlign=middle;spacingTop=-1;spacingLeft=3;spacingRight=3;rotatable=0;labelPosition=right;points=[];portConstraint=eastwest;" vertex="1" parent="NOuWM2T8Ii-4D87twefF-1">
          <mxGeometry y="26" width="160" height="8" as="geometry" />
        </mxCell>
        <mxCell id="NOuWM2T8Ii-4D87twefF-5" value="Employee&#xa;" style="swimlane;fontStyle=1;align=center;verticalAlign=top;childLayout=stackLayout;horizontal=1;startSize=26;horizontalStack=0;resizeParent=1;resizeParentMax=0;resizeLast=0;collapsible=1;marginBottom=0;" vertex="1" parent="1">
          <mxGeometry x="290" y="38" width="160" height="118" as="geometry" />
        </mxCell>
        <mxCell id="NOuWM2T8Ii-4D87twefF-6" value="- id : int&#xa;- vorname : String&#xa;- nachname : String&#xa;- abteilung : String&#xa;- expertisenLevel : int" style="text;strokeColor=none;fillColor=none;align=left;verticalAlign=top;spacingLeft=4;spacingRight=4;overflow=hidden;rotatable=0;points=[[0,0.5],[1,0.5]];portConstraint=eastwest;" vertex="1" parent="NOuWM2T8Ii-4D87twefF-5">
          <mxGeometry y="26" width="160" height="84" as="geometry" />
        </mxCell>
        <mxCell id="NOuWM2T8Ii-4D87twefF-7" value="" style="line;strokeWidth=1;fillColor=none;align=left;verticalAlign=middle;spacingTop=-1;spacingLeft=3;spacingRight=3;rotatable=0;labelPosition=right;points=[];portConstraint=eastwest;" vertex="1" parent="NOuWM2T8Ii-4D87twefF-5">
          <mxGeometry y="110" width="160" height="8" as="geometry" />
        </mxCell>
        <mxCell id="NOuWM2T8Ii-4D87twefF-18" style="edgeStyle=orthogonalEdgeStyle;rounded=0;orthogonalLoop=1;jettySize=auto;html=1;dashed=1;" edge="1" parent="1" source="NOuWM2T8Ii-4D87twefF-9" target="NOuWM2T8Ii-4D87twefF-13">
          <mxGeometry relative="1" as="geometry" />
        </mxCell>
        <mxCell id="NOuWM2T8Ii-4D87twefF-9" value="Stream" style="swimlane;fontStyle=1;align=center;verticalAlign=top;childLayout=stackLayout;horizontal=1;startSize=26;horizontalStack=0;resizeParent=1;resizeParentMax=0;resizeLast=0;collapsible=1;marginBottom=0;" vertex="1" parent="1">
          <mxGeometry x="30" y="350" width="160" height="34" as="geometry" />
        </mxCell>
        <mxCell id="NOuWM2T8Ii-4D87twefF-11" value="" style="line;strokeWidth=1;fillColor=none;align=left;verticalAlign=middle;spacingTop=-1;spacingLeft=3;spacingRight=3;rotatable=0;labelPosition=right;points=[];portConstraint=eastwest;" vertex="1" parent="NOuWM2T8Ii-4D87twefF-9">
          <mxGeometry y="26" width="160" height="8" as="geometry" />
        </mxCell>
        <mxCell id="NOuWM2T8Ii-4D87twefF-24" style="edgeStyle=orthogonalEdgeStyle;rounded=0;orthogonalLoop=1;jettySize=auto;html=1;dashed=1;endArrow=diamond;endFill=0;" edge="1" parent="1" source="NOuWM2T8Ii-4D87twefF-13" target="NOuWM2T8Ii-4D87twefF-1">
          <mxGeometry relative="1" as="geometry">
            <Array as="points">
              <mxPoint x="10" y="434" />
              <mxPoint x="10" y="97" />
            </Array>
          </mxGeometry>
        </mxCell>
        <mxCell id="NOuWM2T8Ii-4D87twefF-13" value="&lt;i&gt;&#xa;PersistanceStrategy" style="swimlane;fontStyle=1;align=center;verticalAlign=top;childLayout=stackLayout;horizontal=1;startSize=44;horizontalStack=0;resizeParent=1;resizeParentMax=0;resizeLast=0;collapsible=1;marginBottom=0;" vertex="1" parent="1">
          <mxGeometry x="260" y="372" width="320" height="124" as="geometry" />
        </mxCell>
        <mxCell id="NOuWM2T8Ii-4D87twefF-15" value="" style="line;strokeWidth=1;fillColor=none;align=left;verticalAlign=middle;spacingTop=-1;spacingLeft=3;spacingRight=3;rotatable=0;labelPosition=right;points=[];portConstraint=eastwest;" vertex="1" parent="NOuWM2T8Ii-4D87twefF-13">
          <mxGeometry y="44" width="320" height="8" as="geometry" />
        </mxCell>
        <mxCell id="NOuWM2T8Ii-4D87twefF-16" value="openConnection() : void { throws PersistenceException }&#xa;closeConnection() : void { throws PersistenceException }&#xa;save( stories : List ) : void { throws PersistenceException }&#xa;load() : List { throws PersistenceException }" style="text;strokeColor=none;fillColor=none;align=left;verticalAlign=top;spacingLeft=4;spacingRight=4;overflow=hidden;rotatable=0;points=[[0,0.5],[1,0.5]];portConstraint=eastwest;" vertex="1" parent="NOuWM2T8Ii-4D87twefF-13">
          <mxGeometry y="52" width="320" height="72" as="geometry" />
        </mxCell>
        <mxCell id="NOuWM2T8Ii-4D87twefF-22" style="edgeStyle=orthogonalEdgeStyle;rounded=0;orthogonalLoop=1;jettySize=auto;html=1;dashed=1;" edge="1" parent="1" source="NOuWM2T8Ii-4D87twefF-20" target="NOuWM2T8Ii-4D87twefF-1">
          <mxGeometry relative="1" as="geometry" />
        </mxCell>
        <mxCell id="NOuWM2T8Ii-4D87twefF-23" style="edgeStyle=orthogonalEdgeStyle;rounded=0;orthogonalLoop=1;jettySize=auto;html=1;dashed=1;" edge="1" parent="1" source="NOuWM2T8Ii-4D87twefF-20" target="NOuWM2T8Ii-4D87twefF-9">
          <mxGeometry relative="1" as="geometry" />
        </mxCell>
        <mxCell id="NOuWM2T8Ii-4D87twefF-20" value="Main" style="swimlane;fontStyle=1;align=center;verticalAlign=top;childLayout=stackLayout;horizontal=1;startSize=26;horizontalStack=0;resizeParent=1;resizeParentMax=0;resizeLast=0;collapsible=1;marginBottom=0;" vertex="1" parent="1">
          <mxGeometry x="180" y="210" width="160" height="34" as="geometry" />
        </mxCell>
        <mxCell id="NOuWM2T8Ii-4D87twefF-21" value="" style="line;strokeWidth=1;fillColor=none;align=left;verticalAlign=middle;spacingTop=-1;spacingLeft=3;spacingRight=3;rotatable=0;labelPosition=right;points=[];portConstraint=eastwest;" vertex="1" parent="NOuWM2T8Ii-4D87twefF-20">
          <mxGeometry y="26" width="160" height="8" as="geometry" />
        </mxCell>
        <mxCell id="NOuWM2T8Ii-4D87twefF-28" style="edgeStyle=orthogonalEdgeStyle;rounded=0;orthogonalLoop=1;jettySize=auto;html=1;dashed=1;endArrow=classic;endFill=1;" edge="1" parent="1" source="NOuWM2T8Ii-4D87twefF-26" target="NOuWM2T8Ii-4D87twefF-1">
          <mxGeometry relative="1" as="geometry" />
        </mxCell>
        <mxCell id="NOuWM2T8Ii-4D87twefF-26" value="CLI" style="swimlane;fontStyle=1;align=center;verticalAlign=top;childLayout=stackLayout;horizontal=1;startSize=26;horizontalStack=0;resizeParent=1;resizeParentMax=0;resizeLast=0;collapsible=1;marginBottom=0;" vertex="1" parent="1">
          <mxGeometry x="30" y="10" width="160" height="34" as="geometry" />
        </mxCell>
        <mxCell id="NOuWM2T8Ii-4D87twefF-27" value="" style="line;strokeWidth=1;fillColor=none;align=left;verticalAlign=middle;spacingTop=-1;spacingLeft=3;spacingRight=3;rotatable=0;labelPosition=right;points=[];portConstraint=eastwest;" vertex="1" parent="NOuWM2T8Ii-4D87twefF-26">
          <mxGeometry y="26" width="160" height="8" as="geometry" />
        </mxCell>
      </root>
    </mxGraphModel>
  </diagram>
</mxfile>
